<?xml version="1.0" encoding="UTF-8" standalone="no"?><!DOCTYPE svg PUBLIC "-//W3C//DTD SVG 1.1//EN" "http://www.w3.org/Graphics/SVG/1.1/DTD/svg11.dtd"><svg width="100%" height="100%" viewBox="0 0 251 198" version="1.1" xmlns="http://www.w3.org/2000/svg" xmlns:xlink="http://www.w3.org/1999/xlink" xml:space="preserve" xmlns:serif="http://www.serif.com/" style="fill-rule:evenodd;clip-rule:evenodd;stroke-linejoin:round;stroke-miterlimit:2;"><rect id="Artboard1" x="0" y="0" width="250.062" height="197.915" style="fill:none;"/><clipPath id="_clip1"><rect x="0" y="0" width="250.062" height="197.915"/></clipPath><g clip-path="url(#_clip1)"><g><rect x="0" y="104.204" width="41.667" height="41.667" style="fill:#81715e;"/><rect x="104.245" y="156.25" width="41.667" height="41.667" style="fill:#81715e;"/><rect x="52.142" y="156.25" width="41.667" height="41.667" style="fill:#81715e;"/><rect x="156.276" y="0" width="41.667" height="41.667" style="fill:#81715e;"/><rect x="156.25" y="104.167" width="41.667" height="41.667" style="fill:#81715e;"/><rect x="156.243" y="156.25" width="41.667" height="41.667" style="fill:#81715e;"/><rect x="208.333" y="104.145" width="41.667" height="41.667" style="fill:#81715e;"/><rect x="208.333" y="52.113" width="41.667" height="41.667" style="fill:#81715e;"/><rect x="0" y="52.11" width="41.667" height="41.667" style="fill:#cfbfa8;"/><rect x="104.242" y="0" width="41.667" height="41.667" style="fill:#cfbfa8;"/><rect x="104.167" y="104.167" width="41.667" height="41.667" style="fill:#cfbfa8;"/><rect x="104.167" y="52.083" width="41.667" height="41.667" style="fill:#cfbfa8;"/><rect x="52.081" y="0" width="41.667" height="41.667" style="fill:#cfbfa8;"/><rect x="52.083" y="104.167" width="41.667" height="41.667" style="fill:#cfbfa8;"/><rect x="52.083" y="52.083" width="41.667" height="41.667" style="fill:#cfbfa8;"/><rect x="156.25" y="52.083" width="41.667" height="41.667" style="fill:#cfbfa8;"/></g></g></svg>